#!OML:ASF E:\id_vita\Project 1\Capture day 1\Session 1\Male1.ASF
:FULLY-SPECIFIED
:DEGREES
1425
root 11.6398 28.8257 0.53054 -171.412 79.3893 -172.577
lowerback 12.569 -3.40843 -5.86666
upperback -11.5779 -5.86469 -1.30285
thorax -20.3191 -1.71508 3.37625
lowerneck 57.6459 -5.03411 2.69993
upperneck 5.26051 -1.15946 3.20687
head -4.52625 0.170582 0.988167
rclavicle 2.06736e-014 -5.56597e-015
rhumerus -36.932 19.9983 -10.3825
rradius 41.8266
rwrist 12.4716
rhand -33.1802 48.8042
rfingers 7.12502
rthumb -6.38818 18.9206
lclavicle 2.06736e-014 -5.56597e-015
lhumerus 18.9001 -19.0636 10.7254
lradius 82.3883
lwrist 17.4499
lhand -23.1131 35.5475
lfingers 7.12502
lthumb 3.33391 65.5012
rfemur -42.8941 -11.0588 24.607
rtibia 57.4277
rfoot -17.5461 -9.96186
rtoes -0.160713
lfemur -5.06718 0.566602 -20.9344
ltibia 42.7975
lfoot 3.62692 -7.41108
ltoes 43.8146
1426
root 11.831 28.8223 0.531238 -173.278 79.6997 -174.39
lowerback 12.7178 -3.27232 -6.26132
upperback -11.3915 -5.78508 -1.33768
thorax -20.1465 -1.6441 3.5378
lowerneck 57.5699 -4.81553 1.69278
upperneck 6.6189 -1.4414 3.28342
head -4.01774 0.0811417 1.18984
rclavicle 2.66371e-014 -6.36111e-015
rhumerus -35.815 19.0871 -9.16668
rradius 42.4837
rwrist 12.9043
rhand -33.3338 48.9097
rfingers 7.12502
rthumb -6.53647 19.0306
lclavicle 2.66371e-014 -6.36111e-015
lhumerus 20.2057 -17.8402 9.12321
lradius 81.8298
lwrist 17.1029
lhand -16.1836 37.7458
lfingers 7.12502
lthumb 10.023 67.4871
rfemur -42.5607 -10.7307 24.2476
rtibia 56.4899
rfoot -17.4266 -10.3503
rtoes 0.613644
lfemur -5.48741 0.849089 -21.4149
ltibia 42.4567
lfoot 2.77203 -6.41697
ltoes 42.8089
1427
root 12.0295 28.8056 0.530886 -174.979 79.9846 -176.177
lowerback 12.5238 -3.25767 -6.68612
upperback -11.1778 -5.83004 -1.2924
thorax -19.6742 -1.6355 3.81712
lowerneck 57.3424 -4.34709 0.361075
upperneck 8.01217 -1.64678 3.36588
head -3.49303 -0.0002557 1.42755
rclavicle -4.13472e-014 -1.66979e-014
rhumerus -34.3256 18.2324 -8.11835
rradius 43.1607
rwrist 12.8403
rhand -33.4493 48.9005
rfingers 7.12502
rthumb -6.64791 19.0249
lclavicle -4.13472e-014 -1.66979e-014
lhumerus 21.0421 -16.2406 7.57917
lradius 81.2482
lwrist 16.5839
lhand -8.27456 39.3426
lfingers 7.12502
lthumb 17.6446 68.562
rfemur -42.3752 -10.4048 23.9249
rtibia 55.6452
rfoot -17.2748 -10.6893
rtoes 1.83038
lfemur -6.04608 1.1141 -21.8753
ltibia 41.9228
lfoot 2.12257 -5.44759
ltoes 42.4114
1428
root 12.2278 28.7718 0.526559 -176.625 80.2583 -178.048
lowerback 12.3445 -3.1157 -6.99949
upperback -11.205 -5.70122 -1.43745
thorax -19.5947 -1.55206 3.77004
lowerneck 57.8864 -4.27968 -0.582678
upperneck 9.04435 -1.99103 3.53832
head -3.11062 -0.153198 1.67637
rclavicle 6.36111e-015 1.35174e-014
rhumerus -33.6231 17.8814 -7.30648
rradius 43.9468
rwrist 12.2845
rhand -33.5693 49.0186
rfingers 7.12502
rthumb -6.76381 19.1466
lclavicle 6.36111e-015 1.35174e-014
lhumerus 22.2962 -15.2041 5.7891
lradius 80.7049
lwrist 16.494
lhand -8.95679 38.9542
lfingers 7.12502
lthumb 16.988 68.2313
rfemur -42.4067 -10.1371 23.6029
rtibia 54.8653
rfoot -17.1214 -10.7901
rtoes 2.19039
lfemur -6.75551 1.44917 -22.3535
ltibia 41.2868
lfoot 1.67983 -4.51369
ltoes 42.0261
1429
root 12.4269 28.7228 0.520551 -177.752 80.4494 -179.339
lowerback 12.3548 -3.08771 -7.16436
upperback -11.1955 -5.702 -1.45392
thorax -19.5781 -1.53249 3.84204
lowerneck 57.2229 -4.0273 -1.75034
upperneck 11.1514 -2.29058 3.37928
head -2.31251 -0.241593 1.80819
rclavicle 1.98785e-014 4.37326e-014
rhumerus -32.3902 17.7289 -6.49646
rradius 44.3077
rwrist 11.5468
rhand -33.6233 49.0986
rfingers 7.12502
rthumb -6.81594 19.2283
lclavicle 1.98785e-014 4.37326e-014
lhumerus 21.9192 -13.9702 2.76276
lradius 81.6947
lwrist 17.9503
lhand -9.52984 38.6618
lfingers 7.12502
lthumb 16.4364 67.9855
rfemur -42.3657 -9.96395 23.3699
rtibia 54.1321
rfoot -17.0871 -10.7104
rtoes 1.45046
lfemur -7.42447 1.92711 -22.6772
ltibia 40.6382
lfoot 1.2849 -3.66391
ltoes 41.2287
1430
root 12.6292 28.6655 0.515258 -179.122 80.4857 -180.859
lowerback 12.2876 -3.06003 -7.31324
upperback -10.8446 -5.69141 -1.49904
thorax -19.0566 -1.55805 3.85718
lowerneck 55.1221 -3.8142 -2.66446
upperneck 13.5674 -2.51811 3.29817
head -1.3885 -0.336112 1.91731
rclavicle -3.97569e-016 4.77083e-015
rhumerus -31.1637 16.9191 -5.67725
rradius 44.6224
rwrist 10.8464
rhand -33.6731 49.1299
rfingers 7.12502
rthumb -6.86398 19.2611
lclavicle -3.97569e-016 4.77083e-015
lhumerus 21.9124 -12.1965 0.257088
lradius 82.0724
lwrist 19.1114
lhand -10.0247 38.4357
lfingers 7.12502
lthumb 15.9599 67.7981
rfemur -42.2668 -9.89737 23.0705
rtibia 53.4257
rfoot -17.1515 -10.5553
rtoes 0.475785
lfemur -8.13219 2.33484 -23.0254
ltibia 40.0556
lfoot 1.08035 -2.7641
ltoes 40.7785
1431
root 12.8324 28.6003 0.512385 -180.018 80.4329 -181.9
lowerback 12.2209 -2.98291 -7.37367
upperback -10.4287 -5.59398 -1.56473
thorax -18.4759 -1.56453 3.77653
lowerneck 51.3051 -3.70547 -3.62268
upperneck 17.139 -2.84219 3.26967
head -0.463902 -0.506654 2.08208
rclavicle 2.62396e-014 -2.62396e-014
rhumerus -30.1277 15.8469 -4.84056
rradius 44.8888
rwrist 10.2498
rhand -33.7234 49.1667
rfingers 7.12502
rthumb -6.91261 19.2996
lclavicle 2.62396e-014 -2.62396e-014
lhumerus 22.6478 -10.2354 -1.45742
lradius 81.4354
lwrist 19.406
lhand -10.618 38.5132
lfingers 7.12502
lthumb 15.3885 67.9205
rfemur -42.1235 -9.86526 22.8429
rtibia 52.7093
rfoot -17.1803 -10.2924
rtoes 0.915026
lfemur -8.92085 2.67914 -23.281
ltibia 39.5872
lfoot 1.02787 -1.94874
ltoes 40.7523
1432
root 13.0355 28.5227 0.512652 -179.01 80.3979 -181.035
lowerback 12.212 -2.87629 -7.15119
upperback -9.9499 -5.38982 -1.52292
thorax -17.8807 -1.55262 3.6422
lowerneck 47.8608 -3.8193 -4.24553
upperneck 20.1934 -3.15979 3.10596
head 0.751507 -0.660058 2.1358
rclavicle 1.72943e-014 -1.98785e-014
rhumerus -29.3932 14.957 -3.81541
rradius 45.3284
rwrist 9.32468
rhand -33.8311 49.202
rfingers 7.12502
rthumb -7.01648 19.3383
lclavicle 1.72943e-014 -1.98785e-014
lhumerus 23.1306 -7.81044 -3.00816
lradius 80.8859
lwrist 19.3475
lhand -11.2789 38.7707
lfingers 7.12502
lthumb 14.7518 68.2258
rfemur -41.9496 -9.67711 22.9349
rtibia 51.994
rfoot -17.5343 -9.70483
rtoes 4.99213
lfemur -9.7941 3.16505 -23.1512
ltibia 39.2275
lfoot 1.03268 -1.47975
ltoes 40.3169
1433
root 13.2326 28.431 0.511102 -177.419 80.4164 -179.62
lowerback 12.0754 -2.71418 -6.76323
upperback -9.45984 -5.06646 -1.50399
thorax -17.2209 -1.50914 3.3516
lowerneck 44.4591 -4.01415 -4.88971
upperneck 23.3464 -3.5007 3.00068
head 2.02438 -0.840311 2.2191
rclavicle 1.35174e-014 -5.56597e-015
rhumerus -28.5462 13.6907 -2.80041
rradius 45.3026
rwrist 8.80454
rhand -33.9044 49.1988
rfingers 7.12502
rthumb -7.08724 19.3375
lclavicle 1.35174e-014 -5.56597e-015
lhumerus 23.9813 -5.86744 -3.97173
lradius 79.9303
lwrist 19.4956
lhand -11.7473 38.6981
lfingers 7.12502
lthumb 14.3005 68.1856
rfemur -41.8984 -9.37311 23.0992
rtibia 51.304
rfoot -18.492 -8.84778
rtoes 11.2678
lfemur -10.7567 3.74092 -22.9349
ltibia 38.9402
lfoot 1.17447 -1.13559
ltoes 40.4372
1434
root 13.4232 28.325 0.502959 -177.528 80.4544 -179.87
lowerback 11.9156 -2.40084 -6.16679
upperback -8.60047 -4.53863 -1.8743
thorax -16.1622 -1.44847 2.44885
lowerneck 50.1865 -5.0833 -0.45137
upperneck 14.1507 -3.22048 2.52836
head -1.43734 -0.597738 1.36467
rclavicle -1.19271e-015 8.74653e-015
rhumerus -28.2062 11.571 -1.95351
rradius 45.0107
rwrist 8.38637
rhand -33.5223 48.8853
rfingers 7.12502
rthumb -6.7184 19.0119
lclavicle -1.19271e-015 8.74653e-015
lhumerus 25.4218 -3.75033 -4.91045
lradius 78.8373
lwrist 20.5632
lhand -11.3488 38.8506
lfingers 7.12502
lthumb 14.6845 68.3106
rfemur -41.8565 -9.19405 22.9272
rtibia 50.645
rfoot -18.301 -8.55403
rtoes 10.2739
lfemur -11.6587 4.22951 -23.0769
ltibia 38.7041
lfoot 1.30388 -0.816005
ltoes 41.4344
1435
root 13.6175 28.2079 0.495725 -178.659 80.362 -181.055
lowerback 11.8734 -2.1303 -5.71135
upperback -7.71579 -4.10897 -2.27805
thorax -15.1448 -1.3957 1.62952
lowerneck 50.534 -5.86795 1.82922
upperneck 11.2896 -3.19449 2.15718
head -2.47883 -0.575524 0.896155
rclavicle 1.88845e-014 2.94201e-014
rhumerus -28.0985 10.0162 -1.11819
rradius 44.9573
rwrist 7.48937
rhand -33.2814 48.8769
rfingers 7.12502
rthumb -6.4859 18.9962
lclavicle 1.88845e-014 2.94201e-014
lhumerus 26.536 -1.4215 -6.68742
lradius 78.3295
lwrist 21.7143
lhand -11.9043 38.852
lfingers 7.12502
lthumb 14.1492 68.3502
rfemur -41.6455 -9.13665 22.5422
rtibia 50.0188
rfoot -17.256 -8.69431
rtoes 4.44534
lfemur -12.4117 4.64821 -23.373
ltibia 38.5019
lfoot 1.32602 -0.7181
ltoes 41.8251
